<?xml version="1.0" encoding="utf-8"?>
<!-- Generator: Adobe Illustrator 15.0.0, SVG Export Plug-In . SVG Version: 6.00 Build 0)  -->
<svg version="1.2" baseProfile="tiny" xmlns="http://www.w3.org/2000/svg" xmlns:xlink="http://www.w3.org/1999/xlink" x="0px"
	 y="0px" width="256px" height="256px" viewBox="0 0 256 256" xml:space="preserve">
<g id="Layer_3" display="none">
	<rect x="-9.049" y="-8.074" stroke="#FFFFFF" stroke-miterlimit="10" width="271.595" height="266.683"/>
	<path fill="#FAFAFC" d="M110.057,39.098c6.712-0.505,14.657-1.762,20.047,3.317c4.095,2.864,5.468,8.034,4.884,12.802
		c0.337,6.168-5.856,9.265-8.888,13.774c-0.662,3.317-1.336,8.462,2.682,9.835c7.581,3.175,15.822,0.039,23.688,0.233
		c9.822,0.156,19.618-0.246,29.363-1.464c0.077,13.632-0.661,27.29-0.053,40.908c0.727,4.277,3.979,9.978,9.071,8.89
		c4.107-0.726,6.505-4.756,10.133-6.531c3.486-0.596,7.115-0.571,10.587,0.103c4.898,2.229,8.721,6.933,9.978,12.142
		c0.324,6.259,1.477,13.8-3.512,18.633c-2.916,3.874-8.06,4.186-12.505,3.861c-5.805,0.26-8.668-5.752-13.372-8.06
		c-3.331-2.074-7.49-0.388-10.082,2.074c-1.529,8.072-0.154,16.392-0.44,24.555c-0.532,9.888,5.054,19.022,3.731,28.948
		c-5.287,3.071-11.688,2.708-17.545,3.692c-12.065,0.855-23.96,4.705-36.14,3.02c-3.24-1.01-5.313-4.715-4.342-8.059
		c2.604-4.755,7.426-7.893,9.822-12.791c0.984-3.95,0.881-8.552-1.724-11.895c-7.14-10.419-24.27-11.195-32.537-1.762
		c-3.693,4.004-5.106,9.899-4.095,15.199c1.853,5.339,6.635,9.382,7.023,15.277c-7.426,2.644-15.188,4.976-23.156,4.264
		c-9.809-0.842-19.515-2.993-29.415-2.605c-1.387-3.511-2.837-7.113-2.669-10.962c0.363-13.93-4.405-27.64-2.385-41.582
		c0.26-1.971,2.67-3.252,4.51-3.306c6.765-1.229,9.11,7.297,14.811,8.979c3.798,0.455,7.737,0.559,11.496-0.283
		c6.128-3.447,9.044-10.64,10.637-17.144c-0.518-5.379-3.614-10.289-6.816-14.54c-3.771-4.924-10.417-6.647-16.301-5.196
		c-3.654,1.594-6.453,4.561-10.003,6.336c-2.384,0.117-4.755-0.207-7.127-0.427c-0.297-17.118-0.558-34.274,0.234-51.366
		C57.175,77,64.626,79.139,72.154,78.97c8.552-0.091,17.157,0.454,25.671-0.35c4.612-0.246,9.964-5.533,6.608-10.03
		c-0.272-0.388-0.83-1.179-1.113-1.568c-2.708-3.848-6.934-7.723-5.754-12.932C99.055,47.573,103.669,41.43,110.057,39.098z"/>
	<path fill="#536FA1" d="M243.188,7.221c6.687,3.538,11.17,10.457,10.936,18.115c0.13,69.585,0.091,139.184,0.157,208.768
		c0.479,7.282-5.029,13.127-10.47,17.169c-5.768,4.251-13.27,3.939-20.072,3.85c-64.816-0.104-129.646,0.013-194.462-0.091
		c-9.771,0.142-19.541-5.209-23.363-14.449c4.47,5.119,9.899,10.25,16.949,11.105c8.176,1.076,16.444,0.324,24.659,0.44
		c54.424,0.142,108.848,0.272,163.272,0.376c8.526-0.064,17.157,0.778,25.604-0.752c7.477-1.386,14.514-7.282,15.459-15.122
		c1.063-8.176,0.26-16.457,0.402-24.672c0.129-54.864-0.453-109.716-0.506-164.581c-0.129-8.592,0.766-17.234-0.414-25.787
		C250.548,15.955,246.934,11.29,243.188,7.221z"/>
	<path display="inline" fill="#536FA1" d="M250.815,24.215c0.338-12.656-12.338-21.393-24.226-20.051
		C163.334,3.939,99.969,4.387,36.716,4.052c-7.515,0.226-15.589-0.669-22.432,3.135C5.425,12.228,3.627,22.979,4.191,32.391
		C4.639,98.358,3.853,164.443,4.53,230.526c-0.339,12.657,12.112,21.281,23.886,20.047c64.823,0.113,129.648-0.108,194.362,0.113
		c7.624-0.222,16.71,0,22.093-6.27c7.514-6.5,5.944-17.364,6.391-26.212C250.701,153.579,251.487,88.841,250.815,24.215z"/>
</g>
<g id="Layer_4" display="none">
	<path display="inline" fill="#6A7D56" d="M71.394,31.672c31.376-11.487,66.391-12.396,98.734-4.493
		c28.904,7.236,56.046,25.234,69.647,52.373c13.725,24.14,13.201,54.705,0.595,79.2c-14.267,31.491-45.417,53.369-78.939,59.894
		c-9.521,2.674-20.436,3.341-30.524,3.838c-12.918,0.713-25.707-2.102-38.497-2.871c-19.07,10.975-41.75,16.86-63.577,11.855
		c-7.588,0.242-14.792-6.61-4.021-10.036c7.29-6.338,16.357-13.435,18.217-23.171c-21.401-21.383-38.667-50.142-37.331-81.318
		c0.653-9.497,2.729-18.709,4.32-22.86c1.791-4.138,0.625-3.498,2.573-6.313c0.042-2.9,1.221-1.536,0.996-4.408
		c2.202,0.896,0.226-0.611,1.021-1.165c1.35-0.213,1.208-5.374,3.525-6.127c0.554-2.033,3.296-7.449,4.391-6.156
		c-0.896-2.729,1.478-2.189,2.8-4.663c0.61-1.891,2.686-2.957,4.888-7.022c2.032-1.806,7.432-5.517,7.262-7.208
		c2.444-0.441,4.803-4.024,8.157-5.972c6.351-3.88,10.784-7.008,16.924-9.737C65.383,33.691,68.367,32.739,71.394,31.672
		L71.394,31.672z"/>
</g>
<g id="Layer_5" display="none">
	<g display="inline">
		<path fill="#00AACB" d="M93.828,73.667c10.639-21.434,21.009-43.022,31.723-64.456c12.329,24.93,24.542,49.897,36.755,74.903
			c14.403,2.267,28.882,4.379,43.323,6.339c13.098,1.882,26.231,3.725,39.291,5.724c-19.818,19.359-39.56,38.873-59.569,58.078
			c4.608,27.503,9.448,55.007,14.133,82.511c-24.658-12.945-49.314-25.929-73.933-38.874c-24.657,12.945-49.314,25.929-73.97,38.874
			c4.685-27.504,9.522-55.008,14.17-82.511C45.742,135.051,26.04,115.537,6.144,96.178c13.096-2.036,26.232-3.841,39.368-5.724
			c14.287-2.036,28.651-3.957,42.862-6.339C90.677,80.928,92.022,77.163,93.828,73.667L93.828,73.667z"/>
	</g>
</g>
<g id="Layer_6" display="none">
	<path display="inline" fill="#151511" d="M46.261,32.129c16.332-6.324,35.38-3.765,50.057,5.531
		c14.146,8.708,24.247,22.709,30.802,37.741c6.733-15.561,17.631-29.798,32.722-38.094c13.998-7.884,31.334-10.061,46.662-4.913
		c12.847,4.119,23.832,13.062,31.069,24.328c7.914,11.943,11.428,26.27,12.551,40.389c1.387,15.856-2.304,32.388-12.107,45.156
		c-14.737,19.472-37.36,30.239-57.146,43.683c-15.858,11.208-30.625,24.21-42.911,39.271c-4.165,5.236-8.299,10.678-10.661,17.002
		c-2.48-6.647-6.792-12.385-11.133-17.943c-9.895-12.208-21.648-22.856-34.376-32.063c-16.863-12.092-36.031-20.915-51.799-34.564
		c-12.936-10.826-23.096-25.74-25.221-42.744c-1.891-15.884,0.236-32.358,6.231-47.213C17.467,51.868,29.989,38.101,46.261,32.129
		L46.261,32.129z"/>
	<path display="inline" fill="#FAFAFC" d="M63.951,95.845c3.517-4.212,7.295-9.57,13.329-9.837
		c3.999-0.768,7.803,1.366,10.259,4.416c3.799,3.307,2.092,8.687,3.006,13.022c1.563,2.271,4.188,5.587,7.274,4.02
		c6.162-2.631,9.009-9.229,13.591-13.72c5.67-5.653,11-11.609,15.823-18c8.017,7.699,15.582,15.888,23.891,23.269
		c2.913,2.005,8.094,3.342,10.35-0.253c1.91-2.814,0.915-6.505,1.939-9.636c1.631-2.375,3.707-4.483,6.073-6.13
		c4.086-1.598,9.007-1.162,12.768,1.063c3.845,3.367,8.906,6.974,8.9,12.638c0.609,3.906-2.131,7.09-4.844,9.505
		c-3.147,3.541-8.289,1.801-12.309,3.24c-3.105,0.77-4.482,4.16-4.514,7.074c3.851,5.478,9.496,9.4,14.107,14.205
		c5.479,5.928,13.995,7.85,19.046,14.262c-1.208,4.835-5.055,8.373-7.808,12.355c-6.354,7.541-10.859,16.683-18.764,22.847
		c-2.43,1.321-5.774,0.429-7.177-2.037c-1.302-4.226-0.398-8.827-1.899-13.011c-1.751-2.819-4.501-5.373-7.936-5.749
		c-10.147-1.743-20.332,7.83-19.512,18.025c0.244,4.433,2.887,8.607,6.562,11.027c4.175,1.949,9.254,1.448,12.922,4.571
		c-2.674,5.843-5.717,11.707-10.661,15.961c-6.064,5.259-9.369,9.866-18.232,15.721c-2.84-1.183-5.771-2.384-7.924-4.665
		c-7.939-8.126-18.664-13.125-25.669-22.227c-1.003-1.273-0.383-3.408,0.629-4.515c3.125-4.653,9.443-1.183,13.665-3.559
		c2.422-1.964,4.721-4.209,6.364-6.883c1.465-5.543,0.813-10.903-3.982-15.959c-5.097-4.557-8.068-3.73-12.372-4.272
		c-5.021-0.592-9.805,2.315-12.3,6.58c-1.141,3.042-0.997,6.363-1.975,9.449c-1.286,1.459-2.822,2.661-4.299,3.924
		c-10.178-9.551-20.358-19.145-29.902-29.315c3.708-4.954,9.191-8.096,13.368-12.594c4.805-5.053,10.012-9.774,14.379-15.208
		c2.475-2.836,2.424-8.969-2.112-9.561c-0.382-0.062-1.162-0.185-1.55-0.24c-3.789-0.603-8.453-0.333-10.83-3.981
		C62.657,107.093,61.687,100.905,63.951,95.845z"/>
</g>
<g id="Layer_2" display="none">
	<path fill="#FAFAFC" d="M116.536,28.731c6.711-0.505,14.656-1.762,20.047,3.317c4.095,2.864,5.468,8.034,4.885,12.803
		c0.336,6.167-5.856,9.265-8.889,13.774c-0.662,3.317-1.336,8.462,2.682,9.835c7.581,3.175,15.822,0.039,23.688,0.233
		c9.822,0.155,19.618-0.246,29.363-1.464c0.077,13.632-0.661,27.29-0.053,40.909c0.727,4.276,3.979,9.978,9.071,8.89
		c4.107-0.726,6.505-4.756,10.134-6.531c3.486-0.596,7.114-0.57,10.586,0.104c4.898,2.229,8.721,6.933,9.978,12.142
		c0.324,6.26,1.477,13.801-3.512,18.633c-2.916,3.875-8.06,4.187-12.505,3.862c-5.805,0.26-8.668-5.753-13.372-8.06
		c-3.331-2.074-7.49-0.389-10.082,2.074c-1.529,8.072-0.154,16.392-0.44,24.555c-0.532,9.888,5.054,19.021,3.732,28.948
		c-5.287,3.071-11.689,2.708-17.545,3.692c-12.065,0.855-23.96,4.705-36.14,3.02c-3.24-1.01-5.313-4.716-4.342-8.059
		c2.604-4.756,7.426-7.893,9.822-12.791c0.984-3.951,0.881-8.552-1.724-11.896c-7.14-10.418-24.27-11.195-32.537-1.761
		c-3.693,4.003-5.106,9.899-4.095,15.198c1.853,5.34,6.635,9.383,7.023,15.278c-7.426,2.644-15.188,4.976-23.156,4.263
		c-9.809-0.841-16.69,0.188-29.415-2.605c-1.387-3.51-2.837-7.112-2.669-10.961c0.363-13.93-4.405-27.64-2.385-41.582
		c0.261-1.971,2.67-3.252,4.51-3.306c6.765-1.229,9.11,7.297,14.811,8.979c3.798,0.454,7.737,0.559,11.496-0.283
		c6.128-3.447,10.288-8.605,10.637-17.144c-0.349-8.379-3.614-10.289-6.816-14.54c-3.771-4.924-10.417-6.647-16.301-5.196
		c-3.654,1.594-6.452,4.561-10.003,6.336c-2.384,0.117-4.755-0.207-7.127-0.427c-0.297-17.119-0.558-34.274,0.234-51.366
		c7.528-0.972,14.979,1.166,22.507,0.998c8.552-0.091,17.157,0.454,25.671-0.35c4.612-0.246,9.964-5.533,6.608-10.03
		c-0.272-0.389-0.83-1.179-1.113-1.568c-2.708-3.848-6.934-7.723-5.754-12.932C105.534,37.207,110.148,31.064,116.536,28.731z"/>
	<path display="inline" fill="#FBFBFD" d="M141.85,44.775c0.372,6.17-5.882,9.255-8.937,13.813
		c-0.695,3.316-2.225,8.196,1.852,9.576c19.313,0,35.659-0.828,54.367-0.966c0.047,13.675-2.638,27.948-2.037,41.578
		c0,6.861,3.982,7.459,11.113,8.38c4.309-0.461,7.179-11.006,20.886-6.447c15.699,9.072,13.8,35.408-6.066,34.716
		c-5.88,0.277-8.752-5.755-13.475-8.103c-3.381-2.071-9.817-0.369-12.458,2.119c-0.231,18.924,1.991,42.404,1.991,53.641
		c-4.444,2.439-32.788,7.735-50.568,6.722c-3.243-1.013-5.325-4.741-4.353-8.057c2.64-4.788,7.501-7.921,9.911-12.846
		c0.972-3.961,0.879-8.566-1.759-11.927c-7.179-10.451-24.453-11.233-32.79-1.749c-3.751,4.006-5.186,9.898-4.168,15.241
		c1.577,4.464,6.206,7.828,7.086,12.386c1.574,11.188-45.428,6.307-53.024,4.559c-3.704-3.499-4.214-20.029-5.186-50.096
		c1.388-3.41,4.815-6.217,8.01-5.664c4.445,1.427,6.901,7.413,11.579,8.794c3.843,0.461,7.826,0.553,11.579-0.323
		c13.289-7.688,12.548-21.181,3.889-31.77c-3.797-4.927-10.513-6.63-16.44-5.204c-3.704,1.612-7.686,6.308-10.096,6.354
		c-2.407,0.138-6.112-0.46-8.52-0.691c-0.325-17.173,1.065-34.348,1.851-51.478c16.163,0.323,31.769,0.828,48.579,0.828
		c4.677-0.228,9.773-5.478,6.392-9.99c-3.475-4.604-7.179-8.519-6.947-14.55C107.906,22.859,142.684,22.859,141.85,44.775
		L141.85,44.775L141.85,44.775L141.85,44.775z"/>
</g>
<g id="Layer_7" display="none">
	<linearGradient id="SVGID_1_" gradientUnits="userSpaceOnUse" x1="8.2441" y1="19.6704" x2="227.0949" y2="217.0852">
		<stop  offset="0" style="stop-color:#FBFCFD"/>
		<stop  offset="1" style="stop-color:#D5DBE5"/>
	</linearGradient>
	<path display="inline" fill="url(#SVGID_1_)" d="M250.815,24.215c0.338-12.656-12.338-21.393-24.226-20.051
		C163.334,3.939,99.969,4.387,36.716,4.052c-7.515,0.226-15.589-0.669-22.432,3.135C5.425,12.228,3.627,22.979,4.191,32.391
		C4.639,98.358,3.853,164.443,4.53,230.526c-0.339,12.657,12.112,21.281,23.886,20.047c64.823,0.113,129.648-0.108,194.362,0.113
		c7.624-0.222,16.71,0,22.093-6.27c7.514-6.5,5.944-17.364,6.391-26.212C250.701,153.579,251.487,88.841,250.815,24.215z"/>
	<linearGradient id="SVGID_2_" gradientUnits="userSpaceOnUse" x1="8.2441" y1="19.6704" x2="227.0949" y2="217.0852">
		<stop  offset="0" style="stop-color:#FBFCFD"/>
		<stop  offset="1" style="stop-color:#D5DBE5"/>
	</linearGradient>
	<path display="inline" fill="url(#SVGID_2_)" d="M250.815,24.215c0.338-12.656-12.338-21.393-24.226-20.051
		C163.334,3.939,99.969,4.387,36.716,4.052c-7.515,0.226-15.589-0.669-22.432,3.135C5.425,12.228,3.627,22.979,4.191,32.391
		C4.639,98.358,3.853,164.443,4.53,230.526c-0.339,12.657,12.112,21.281,23.886,20.047c64.823,0.113,129.648-0.108,194.362,0.113
		c7.624-0.222,16.71,0,22.093-6.27c7.514-6.5,5.944-17.364,6.391-26.212C250.701,153.579,251.487,88.841,250.815,24.215z"/>
	<g display="inline">
		<linearGradient id="SVGID_3_" gradientUnits="userSpaceOnUse" x1="1.0083" y1="36.7598" x2="253.7872" y2="217.6436">
			<stop  offset="0" style="stop-color:#5672A1"/>
			<stop  offset="1" style="stop-color:#1D3D75"/>
		</linearGradient>
		<path fill="url(#SVGID_3_)" d="M250.815,24.215c0.338-12.656-12.338-21.393-24.226-20.051
			C163.334,3.939,99.969,4.387,36.716,4.052c-7.515,0.226-15.589-0.669-22.432,3.135C5.425,12.228,3.627,22.979,4.191,32.391
			C4.639,98.358,3.853,164.443,4.53,230.526c-0.339,12.657,12.112,21.281,23.886,20.047c64.823,0.113,129.648-0.108,194.362,0.113
			c7.624-0.222,16.71,0,22.093-6.27c7.514-6.5,5.944-17.364,6.391-26.212C250.701,153.579,251.487,88.841,250.815,24.215z
			 M240.371,158.752c-14.267,31.491-45.417,53.369-78.939,59.894c-9.521,2.674-20.436,3.341-30.524,3.838
			c-12.918,0.713-25.707-2.102-38.497-2.871c-19.07,10.975-41.75,16.86-63.577,11.855c-7.588,0.242-14.792-6.61-4.021-10.036
			c7.29-6.338,16.357-13.435,18.217-23.171c-21.401-21.383-38.667-50.142-37.331-81.318c0.653-9.497,2.729-18.709,4.32-22.86
			c1.791-4.138,0.625-3.498,2.573-6.313c0.042-2.9,1.221-1.536,0.996-4.408c2.202,0.896,0.226-0.611,1.021-1.165
			c1.35-0.213,1.208-5.374,3.525-6.127c0.554-2.033,3.296-7.449,4.391-6.156c-0.896-2.729,1.478-2.189,2.8-4.663
			c0.61-1.891,2.686-2.957,4.888-7.022c2.032-1.806,7.432-5.517,7.262-7.208c2.444-0.441,4.803-4.024,8.157-5.972
			c6.351-3.88,10.784-7.008,16.924-9.737c2.829-1.621,5.813-2.573,8.839-3.64c31.376-11.487,66.391-12.396,98.734-4.493
			c28.904,7.236,56.046,25.234,69.647,52.373C253.5,103.692,252.977,134.257,240.371,158.752z"/>
		<linearGradient id="SVGID_4_" gradientUnits="userSpaceOnUse" x1="2.5972" y1="45.2354" x2="270.2277" y2="236.7468">
			<stop  offset="0" style="stop-color:#5672A1"/>
			<stop  offset="1" style="stop-color:#1D3D75"/>
		</linearGradient>
		<path fill="url(#SVGID_4_)" d="M219.093,110.71c-13.707-4.559-16.577,5.986-20.886,6.447c-7.13-0.921-11.113-1.52-11.113-8.38
			c-0.601-13.63,2.084-27.903,2.037-41.578c-18.708,0.138-35.054,0.966-54.367,0.966c-4.076-1.38-2.546-6.26-1.852-9.576
			c3.055-4.558,9.309-7.644,8.937-13.813c0.834-21.917-33.944-21.917-37.742-1.15c-0.231,6.031,3.473,9.946,6.947,14.55
			c3.381,4.512-1.714,9.762-6.392,9.99c-16.81,0-32.417-0.505-48.579-0.828c-0.786,17.13-2.176,34.305-1.851,51.478
			c2.408,0.231,6.113,0.829,8.52,0.691c2.41-0.046,6.392-4.742,10.096-6.354c5.927-1.427,12.643,0.276,16.44,5.204
			c8.66,10.589,9.4,24.081-3.889,31.77c-3.753,0.876-7.735,0.784-11.579,0.323c-4.677-1.381-7.133-7.367-11.579-8.794
			c-3.195-0.553-6.622,2.254-8.01,5.664c0.972,30.066,1.482,46.597,5.186,50.096c7.597,1.748,54.599,6.629,53.024-4.559
			c-0.881-4.558-5.51-7.922-7.086-12.386c-1.017-5.343,0.417-11.235,4.168-15.241c8.337-9.484,25.611-8.702,32.79,1.749
			c2.638,3.36,2.731,7.966,1.759,11.927c-2.409,4.925-7.271,8.058-9.911,12.846c-0.972,3.315,1.11,7.044,4.353,8.057
			c17.781,1.014,46.124-4.282,50.568-6.722c0-11.236-2.222-34.717-1.991-53.641c2.641-2.488,9.077-4.19,12.458-2.119
			c4.723,2.348,7.594,8.38,13.475,8.103C232.893,146.118,234.792,119.782,219.093,110.71z"/>
	</g>
</g>
<g id="Layer_8">
	<g>
		<linearGradient id="SVGID_5_" gradientUnits="userSpaceOnUse" x1="1.1152" y1="36.7598" x2="253.8934" y2="217.6431">
			<stop  offset="0" style="stop-color:#5672A1"/>
			<stop  offset="1" style="stop-color:#1D3D75"/>
		</linearGradient>
		<path fill="url(#SVGID_5_)" d="M250.923,24.215c0.336-12.656-12.338-21.393-24.226-20.051
			C163.44,3.939,100.075,4.387,36.823,4.052c-7.515,0.226-15.589-0.669-22.432,3.135C5.532,12.228,3.734,22.979,4.298,32.391
			C4.746,98.358,3.96,164.443,4.637,230.526c-0.339,12.657,12.112,21.281,23.886,20.047c64.823,0.113,129.648-0.108,194.363,0.113
			c7.623-0.222,16.709,0,22.092-6.27c7.514-6.5,5.945-17.364,6.39-26.212C250.809,153.579,251.594,88.841,250.923,24.215z"/>
		<linearGradient id="SVGID_6_" gradientUnits="userSpaceOnUse" x1="25.9204" y1="74.0786" x2="204.7139" y2="202.0199">
			<stop  offset="0" style="stop-color:#5672A1"/>
			<stop  offset="1" style="stop-color:#1D3D75"/>
		</linearGradient>
		<path display="none" fill="url(#SVGID_6_)" d="M45.682,45.975c-26.561,17.614-33.91,44.858-35.613,49.033
			c-1.679,4.116-3.667,13.362-4.32,22.859c-1.335,31.177,15.93,59.937,37.331,81.318c-1.86,9.736-10.928,16.833-18.217,23.172
			c-9.629,4.827-5.742,8.715,4.021,10.036c21.827,5.004,44.506-0.881,63.576-11.856c12.791,0.77,25.58,3.584,38.498,2.871
			c10.088-0.497,21.003-1.164,30.525-3.838c33.521-6.524,64.671-28.402,78.938-59.893c12.606-24.496,13.13-55.06-0.595-79.2
			c-13.601-27.139-40.742-45.137-69.647-52.373c-32.342-7.904-67.356-6.995-98.734,4.493c-3.027,1.066-5.933,2.165-8.838,3.639
			C56.612,39.276,52.075,42.166,45.682,45.975"/>
		<linearGradient id="SVGID_7_" gradientUnits="userSpaceOnUse" x1="2.7056" y1="45.2368" x2="270.3347" y2="236.7472">
			<stop  offset="0" style="stop-color:#5672A1"/>
			<stop  offset="1" style="stop-color:#1D3D75"/>
		</linearGradient>
		<path display="none" fill="url(#SVGID_7_)" d="M219.201,110.71c-13.707-4.559-16.577,5.986-20.887,6.447
			c-7.129-0.921-11.113-1.52-11.113-8.38c-0.6-13.63,2.085-27.903,2.037-41.578c-18.708,0.138-35.053,0.966-54.366,0.966
			c-4.077-1.38-2.546-6.26-1.853-9.576c3.055-4.558,9.309-7.644,8.937-13.813c0.835-21.917-33.944-21.917-37.74-1.15
			c-0.233,6.031,3.472,9.946,6.947,14.55c3.381,4.512-1.716,9.762-6.393,9.99c-16.81,0-32.416-0.505-48.578-0.828
			c-0.787,17.13-2.177,34.305-1.853,51.478c2.409,0.231,6.114,0.829,8.521,0.691c2.409-0.046,6.39-4.742,10.095-6.354
			c5.928-1.427,12.642,0.276,16.441,5.204c8.658,10.589,9.399,24.081-3.89,31.77c-3.753,0.876-7.734,0.784-11.579,0.323
			c-4.677-1.381-7.132-7.367-11.579-8.794c-3.194-0.553-6.621,2.254-8.01,5.664c0.972,30.066,1.483,46.597,5.186,50.096
			c7.598,1.748,54.599,6.629,53.024-4.559c-0.881-4.558-5.51-7.922-7.086-12.386c-1.018-5.343,0.417-11.235,4.168-15.241
			c8.336-9.484,25.612-8.702,32.79,1.749c2.64,3.36,2.73,7.966,1.759,11.927c-2.409,4.925-7.271,8.058-9.911,12.846
			c-0.972,3.315,1.111,7.044,4.354,8.057c17.782,1.014,46.125-4.282,50.569-6.722c0-11.236-2.222-34.717-1.992-53.641
			c2.642-2.488,9.078-4.19,12.459-2.119c4.723,2.348,7.592,8.38,13.474,8.103C232.999,146.118,234.9,119.782,219.201,110.71z"/>
		<linearGradient id="SVGID_8_" gradientUnits="userSpaceOnUse" x1="1.1152" y1="36.7598" x2="253.8934" y2="217.6431">
			<stop  offset="0" style="stop-color:#5672A1"/>
			<stop  offset="1" style="stop-color:#1D3D75"/>
		</linearGradient>
		<path display="none" fill="url(#SVGID_8_)" d="M250.923,24.215c0.336-12.656-12.338-21.393-24.226-20.051
			C163.44,3.939,100.075,4.387,36.823,4.052c-7.515,0.226-15.589-0.669-22.432,3.135C5.532,12.228,3.734,22.979,4.298,32.391
			C4.746,98.358,3.96,164.443,4.637,230.526c-0.339,12.657,12.112,21.281,23.886,20.047c64.823,0.113,129.648-0.108,194.363,0.113
			c7.623-0.222,16.709,0,22.092-6.27c7.514-6.5,5.945-17.364,6.39-26.212C250.809,153.579,251.594,88.841,250.923,24.215z"/>
		<linearGradient id="SVGID_9_" gradientUnits="userSpaceOnUse" x1="25.9204" y1="74.0786" x2="204.7139" y2="202.0199">
			<stop  offset="0" style="stop-color:#5672A1"/>
			<stop  offset="1" style="stop-color:#1D3D75"/>
		</linearGradient>
		<path display="none" fill="url(#SVGID_9_)" d="M45.682,45.975c-26.561,17.614-33.91,44.858-35.613,49.033
			c-1.679,4.116-3.667,13.362-4.32,22.859c-1.335,31.177,15.93,59.937,37.331,81.318c-1.86,9.736-10.928,16.833-18.217,23.172
			c-9.629,4.827-5.742,8.715,4.021,10.036c21.827,5.004,44.506-0.881,63.576-11.856c12.791,0.77,25.58,3.584,38.498,2.871
			c10.088-0.497,21.003-1.164,30.525-3.838c33.521-6.524,64.671-28.402,78.938-59.893c12.606-24.496,13.13-55.06-0.595-79.2
			c-13.601-27.139-40.742-45.137-69.647-52.373c-32.342-7.904-67.356-6.995-98.734,4.493c-3.027,1.066-5.933,2.165-8.838,3.639
			C56.612,39.276,52.075,42.166,45.682,45.975"/>
		<linearGradient id="SVGID_10_" gradientUnits="userSpaceOnUse" x1="25.9204" y1="74.0786" x2="204.7139" y2="202.0199">
			<stop  offset="0" style="stop-color:#5672A1"/>
			<stop  offset="1" style="stop-color:#1D3D75"/>
		</linearGradient>
		<path display="none" fill="url(#SVGID_10_)" d="M45.682,45.975c-26.561,17.614-33.91,44.858-35.613,49.033
			c-1.679,4.116-3.667,13.362-4.32,22.859c-1.335,31.177,15.93,59.937,37.331,81.318c-1.86,9.736-10.928,16.833-18.217,23.172
			c-9.629,4.827-5.742,8.715,4.021,10.036c21.827,5.004,44.506-0.881,63.576-11.856c12.791,0.77,25.58,3.584,38.498,2.871
			c10.088-0.497,21.003-1.164,30.525-3.838c33.521-6.524,64.671-28.402,78.938-59.893c12.606-24.496,13.13-55.06-0.595-79.2
			c-13.601-27.139-40.742-45.137-69.647-52.373c-32.342-7.904-67.356-6.995-98.734,4.493c-3.027,1.066-5.933,2.165-8.838,3.639
			C56.612,39.276,52.075,42.166,45.682,45.975"/>
		<linearGradient id="SVGID_11_" gradientUnits="userSpaceOnUse" x1="2.7056" y1="45.2368" x2="270.3347" y2="236.7472">
			<stop  offset="0" style="stop-color:#FBFCFD"/>
			<stop  offset="1" style="stop-color:#D5DBE5"/>
		</linearGradient>
		<path fill="url(#SVGID_11_)" d="M219.201,110.71c-13.707-4.559-16.577,5.986-20.887,6.447c-7.129-0.921-11.113-1.52-11.113-8.38
			c-0.6-13.63,2.085-27.903,2.037-41.578c-18.708,0.138-35.053,0.966-54.366,0.966c-4.077-1.38-2.546-6.26-1.853-9.576
			c3.055-4.558,9.309-7.644,8.937-13.813c0.835-21.917-33.944-21.917-37.74-1.15c-0.233,6.031,3.472,9.946,6.947,14.55
			c3.381,4.512-1.716,9.762-6.393,9.99c-16.81,0-32.416-0.505-48.578-0.828c-0.787,17.13-2.177,34.305-1.853,51.478
			c2.409,0.231,6.114,0.829,8.521,0.691c2.409-0.046,6.39-4.742,10.095-6.354c5.928-1.427,12.642,0.276,16.441,5.204
			c8.658,10.589,9.399,24.081-3.89,31.77c-3.753,0.876-7.734,0.784-11.579,0.323c-4.677-1.381-7.132-7.367-11.579-8.794
			c-3.194-0.553-6.621,2.254-8.01,5.664c0.972,30.066,1.483,46.597,5.186,50.096c7.598,1.748,54.599,6.629,53.024-4.559
			c-0.881-4.558-5.51-7.922-7.086-12.386c-1.018-5.343,0.417-11.235,4.168-15.241c8.336-9.484,25.612-8.702,32.79,1.749
			c2.64,3.36,2.73,7.966,1.759,11.927c-2.409,4.925-7.271,8.058-9.911,12.846c-0.972,3.315,1.111,7.044,4.354,8.057
			c17.782,1.014,46.125-4.282,50.569-6.722c0-11.236-2.222-34.717-1.992-53.641c2.642-2.488,9.078-4.19,12.459-2.119
			c4.723,2.348,7.592,8.38,13.474,8.103C232.999,146.118,234.9,119.782,219.201,110.71z"/>
		<linearGradient id="SVGID_12_" gradientUnits="userSpaceOnUse" x1="2.7056" y1="45.2368" x2="270.3347" y2="236.7472">
			<stop  offset="0" style="stop-color:#FBFCFD"/>
			<stop  offset="1" style="stop-color:#D5DBE5"/>
		</linearGradient>
		<path display="none" fill="url(#SVGID_12_)" d="M219.201,110.71c-13.707-4.559-16.577,5.986-20.887,6.447
			c-7.129-0.921-11.113-1.52-11.113-8.38c-0.6-13.63,2.085-27.903,2.037-41.578c-18.708,0.138-35.053,0.966-54.366,0.966
			c-4.077-1.38-2.546-6.26-1.853-9.576c3.055-4.558,9.309-7.644,8.937-13.813c0.835-21.917-33.944-21.917-37.74-1.15
			c-0.233,6.031,3.472,9.946,6.947,14.55c3.381,4.512-1.716,9.762-6.393,9.99c-16.81,0-32.416-0.505-48.578-0.828
			c-0.787,17.13-2.177,34.305-1.853,51.478c2.409,0.231,6.114,0.829,8.521,0.691c2.409-0.046,6.39-4.742,10.095-6.354
			c5.928-1.427,12.642,0.276,16.441,5.204c8.658,10.589,9.399,24.081-3.89,31.77c-3.753,0.876-7.734,0.784-11.579,0.323
			c-4.677-1.381-7.132-7.367-11.579-8.794c-3.194-0.553-6.621,2.254-8.01,5.664c0.972,30.066,1.483,46.597,5.186,50.096
			c7.598,1.748,54.599,6.629,53.024-4.559c-0.881-4.558-5.51-7.922-7.086-12.386c-1.018-5.343,0.417-11.235,4.168-15.241
			c8.336-9.484,25.612-8.702,32.79,1.749c2.64,3.36,2.73,7.966,1.759,11.927c-2.409,4.925-7.271,8.058-9.911,12.846
			c-0.972,3.315,1.111,7.044,4.354,8.057c17.782,1.014,46.125-4.282,50.569-6.722c0-11.236-2.222-34.717-1.992-53.641
			c2.642-2.488,9.078-4.19,12.459-2.119c4.723,2.348,7.592,8.38,13.474,8.103C232.999,146.118,234.9,119.782,219.201,110.71z"/>
	</g>
</g>
</svg>
